<svg width="150" height="36" viewBox="0 0 150 36" fill="none" xmlns="http://www.w3.org/2000/svg">
<path d="M30.3016 29.4304C30.3016 28.8968 30.4365 28.4843 30.7063 28.19C30.9843 27.8958 31.3753 27.75 31.8763 27.75C31.9699 27.75 32.0773 27.7665 32.2012 27.7968C32.3333 27.8188 32.4434 27.8545 32.537 27.9013V28.5503C32.3746 28.4568 32.1764 28.4101 31.9451 28.4101C31.3587 28.4101 31.0642 28.7428 31.0642 29.4056V29.9969H32.5012V30.679H31.0642V35.7504H30.2988V29.4276L30.3016 29.4304ZM33.4868 29.9969H34.2521V31.075C34.4448 30.7285 34.7202 30.4397 35.0753 30.2059C35.4387 29.9667 35.8241 29.8649 36.2343 29.9034L36.2123 30.679C36.1104 30.657 36.0223 30.6432 35.9452 30.6432C35.6452 30.6432 35.3616 30.7367 35.1001 30.921C34.844 31.1053 34.6403 31.35 34.4861 31.6498C34.332 31.9441 34.2549 32.2439 34.2549 32.5519V35.7476H33.4896V29.9914L33.4868 29.9969ZM39.3837 35.8796C38.8579 35.8796 38.3789 35.7476 37.9467 35.4864C37.5227 35.2168 37.1813 34.8538 36.9253 34.3973C36.6775 33.9352 36.5536 33.4237 36.5536 32.8682C36.5536 32.3126 36.6775 31.7846 36.9253 31.328C37.1813 30.8715 37.52 30.5167 37.9467 30.2637C38.3789 30.0024 38.8579 29.8704 39.3837 29.8704C39.9096 29.8704 40.3858 30.0024 40.8098 30.2637C41.242 30.5195 41.5834 30.8742 41.8312 31.328C42.0872 31.7846 42.2138 32.2961 42.2138 32.8682C42.2138 33.4402 42.0872 33.9325 41.8312 34.3973C41.5834 34.8538 41.2448 35.2141 40.8098 35.4864C40.3858 35.7476 39.9096 35.8796 39.3837 35.8796ZM39.3837 35.1976C39.7857 35.1976 40.1408 35.0986 40.4491 34.8978C40.7575 34.697 40.997 34.4193 41.1677 34.0645C41.3384 33.7097 41.4237 33.3109 41.4237 32.8709C41.4237 32.4309 41.3384 32.0458 41.1677 31.6911C40.997 31.3363 40.7575 31.0585 40.4491 30.8577C40.1408 30.6487 39.7857 30.5442 39.3837 30.5442C38.9818 30.5442 38.6267 30.6487 38.3183 30.8577C38.01 31.0585 37.7705 31.3363 37.5998 31.6911C37.4291 32.0458 37.3438 32.4391 37.3438 32.8709C37.3438 33.3027 37.4291 33.707 37.5998 34.0645C37.7705 34.4193 38.01 34.697 38.3183 34.8978C38.6267 35.0986 38.9818 35.1976 39.3837 35.1976ZM43.5077 29.9969H44.2731V31.0283C44.4823 30.7037 44.7493 30.4342 45.0742 30.2169C45.4073 29.9942 45.79 29.8814 46.2222 29.8814C46.6544 29.8814 47.0343 30.0052 47.3344 30.2527C47.6372 30.492 47.8299 30.8165 47.9153 31.2263C48.086 30.8632 48.364 30.547 48.7494 30.2774C49.1349 30.0079 49.5561 29.8732 50.0131 29.8732C50.5609 29.8732 51.0014 30.0492 51.3345 30.4067C51.6759 30.7615 51.8438 31.3335 51.8438 32.1201V35.7449H51.0785V32.2604C51.0785 31.6278 50.9656 31.1823 50.7426 30.9292C50.5196 30.668 50.2085 30.536 49.8149 30.536C49.512 30.536 49.2285 30.6295 48.9559 30.8137C48.6861 30.998 48.4686 31.2345 48.3062 31.5205C48.1438 31.8066 48.0639 32.0926 48.0639 32.3786V35.7586H47.2986V32.2741C47.2986 31.6581 47.183 31.218 46.9517 30.954C46.7205 30.6845 46.4094 30.5497 46.024 30.5497C45.7074 30.5497 45.4128 30.6432 45.143 30.8275C44.8815 31.0063 44.6667 31.2455 44.5043 31.5453C44.3502 31.8396 44.2731 32.1503 44.2731 32.4831V35.7614H43.5077V30.0052V29.9969ZM58.9108 35.8796C58.385 35.8796 57.9032 35.7834 57.4627 35.5909C57.0222 35.3901 56.6506 35.1316 56.3505 34.8153C56.0477 34.4908 55.8357 34.1553 55.7118 33.8087L56.4551 33.4264C56.634 33.9435 56.9451 34.3615 57.3939 34.6778C57.8509 34.9941 58.3547 35.1536 58.9135 35.1536C59.4724 35.1536 59.9294 35.0133 60.2928 34.7356C60.6562 34.4495 60.8379 34.0865 60.8379 33.6465C60.8379 33.2449 60.7057 32.9507 60.4442 32.7664C60.1882 32.5821 59.8385 32.4391 59.3898 32.3374L58.2528 32.0816C57.6279 31.9413 57.1021 31.6883 56.6753 31.317C56.2514 30.9375 56.0366 30.459 56.0366 29.8814C56.0366 29.4799 56.1495 29.1169 56.3725 28.7923C56.6038 28.4678 56.9176 28.212 57.3113 28.0278C57.7132 27.8435 58.151 27.75 58.6217 27.75C59.0925 27.75 59.5577 27.838 59.9652 28.0168C60.3836 28.1873 60.725 28.3991 60.9976 28.6548C61.2756 28.9023 61.4601 29.1334 61.5537 29.3506L60.8351 29.7687C60.6727 29.4276 60.3836 29.1279 59.9652 28.8638C59.5495 28.6026 59.0897 28.4706 58.5859 28.4706C58.2996 28.4706 58.0271 28.5283 57.7628 28.6438C57.5012 28.7511 57.2865 28.9133 57.1241 29.1306C56.9699 29.3396 56.8928 29.5871 56.8928 29.8704C56.8928 30.2637 57.036 30.5772 57.3223 30.8082C57.6169 31.031 58.0216 31.2015 58.5391 31.317L59.7202 31.5948C61.0333 31.8946 61.6913 32.5629 61.6913 33.597C61.6913 34.0452 61.5674 34.4413 61.3197 34.7906C61.0801 35.1316 60.747 35.3956 60.3231 35.5909C59.8991 35.7834 59.4256 35.8796 58.908 35.8796H58.9108ZM65.6336 35.8796C65.0995 35.8796 64.6067 35.7531 64.1497 35.4974C63.6927 35.2416 63.3321 34.8841 63.0596 34.4193C62.7898 33.9572 62.6549 33.4347 62.6549 32.8572C62.6549 32.2796 62.7787 31.7736 63.0265 31.317C63.2743 30.8605 63.6046 30.5057 64.0231 30.2527C64.4471 29.9969 64.9151 29.8704 65.4271 29.8704C65.975 29.8704 66.4513 29.9859 66.8532 30.2169C67.2634 30.448 67.58 30.7642 67.803 31.1658C68.026 31.559 68.1581 32.0073 68.1967 32.5106C68.2049 32.6096 68.2077 32.8049 68.2077 33.0909H63.456C63.4863 33.5227 63.6074 33.8967 63.8166 34.213C64.0259 34.5293 64.2874 34.7713 64.604 34.9418C64.9288 35.1041 65.2812 35.1838 65.6584 35.1838C66.0355 35.1838 66.3962 35.0876 66.6908 34.8951C66.9936 34.6943 67.2166 34.4385 67.3625 34.1305L68.0122 34.5128C67.803 34.9143 67.4864 35.2416 67.0624 35.4974C66.6385 35.7531 66.1622 35.8796 65.6364 35.8796H65.6336ZM67.3955 32.4309C67.379 31.9056 67.2056 31.4628 66.8752 31.0998C66.5421 30.7285 66.0603 30.5442 65.4271 30.5442C64.9316 30.5442 64.4994 30.7065 64.1277 31.031C63.7643 31.3555 63.5441 31.8231 63.467 32.4336H67.3955V32.4309ZM69.4796 29.9969H70.2449V31.075C70.4376 30.7285 70.7129 30.4397 71.068 30.2059C71.4314 29.9667 71.8168 29.8649 72.227 29.9034L72.205 30.679C72.1032 30.657 72.0151 30.6432 71.938 30.6432C71.6352 30.6432 71.3543 30.7367 71.0928 30.921C70.8368 31.1053 70.6331 31.35 70.4789 31.6498C70.3247 31.9441 70.2476 32.2439 70.2476 32.5519V35.7476H69.4823V29.9914L69.4796 29.9969ZM72.5492 29.9969H73.3943L75.2719 34.9418L77.1136 29.9969H77.9588L75.7206 35.7531H74.8396L72.5436 29.9969H72.5492ZM79.773 29.9969V35.7531H79.0077V29.9969H79.773ZM79.3904 28.9683C79.2279 28.9683 79.0875 28.9106 78.9719 28.7951C78.8563 28.6796 78.7985 28.5393 78.7985 28.377C78.7985 28.2065 78.8563 28.0635 78.9719 27.948C79.0875 27.8243 79.2279 27.7637 79.3904 27.7637C79.5528 27.7637 79.6904 27.8243 79.8088 27.948C79.9244 28.0635 79.9823 28.2065 79.9823 28.377C79.9823 28.5476 79.9244 28.6796 79.8088 28.7951C79.6932 28.9106 79.5528 28.9683 79.3904 28.9683ZM83.9521 35.8796C83.396 35.8796 82.8977 35.7449 82.4572 35.4754C82.0167 35.2058 81.6726 34.8401 81.4248 34.3753C81.1771 33.9132 81.0532 33.3989 81.0532 32.8352C81.0532 32.2714 81.1716 31.7763 81.4138 31.3308C81.6616 30.8742 82.0002 30.5195 82.4324 30.2664C82.8729 30.0052 83.3712 29.8732 83.9273 29.8732C84.4531 29.8732 84.9156 29.9914 85.3176 30.2334C85.7278 30.4727 86.0389 30.7697 86.2564 31.1245L85.5956 31.5068C85.4497 31.2373 85.2212 31.009 84.9129 30.8247C84.6128 30.6405 84.2797 30.547 83.9163 30.547C83.5061 30.547 83.1427 30.6515 82.8261 30.8605C82.5095 31.0695 82.2645 31.35 82.0966 31.7048C81.9259 32.0513 81.8405 32.4419 81.8405 32.8737C81.8405 33.3054 81.9286 33.7097 82.1076 34.0672C82.292 34.422 82.5453 34.6998 82.8619 34.9006C83.1867 35.1013 83.5502 35.2003 83.9521 35.2003C84.354 35.2003 84.6926 35.1013 84.9955 34.9006C85.3038 34.6915 85.5323 34.4303 85.6782 34.114L86.3169 34.4853C86.0994 34.8951 85.7828 35.2306 85.3671 35.4919C84.9569 35.7531 84.4862 35.8851 83.9521 35.8851V35.8796ZM89.9922 35.8796C89.4581 35.8796 88.9653 35.7531 88.5083 35.4974C88.0513 35.2416 87.6879 34.8841 87.4181 34.4193C87.1483 33.9572 87.0134 33.4347 87.0134 32.8572C87.0134 32.2796 87.1373 31.7736 87.3851 31.317C87.6329 30.8605 87.966 30.5057 88.3817 30.2527C88.8056 29.9969 89.2736 29.8704 89.7857 29.8704C90.3335 29.8704 90.8098 29.9859 91.2118 30.2169C91.622 30.448 91.9385 30.7642 92.1615 31.1658C92.3845 31.559 92.5167 32.0073 92.5552 32.5106C92.5635 32.6096 92.5662 32.8049 92.5662 33.0909H87.8146C87.8448 33.5227 87.966 33.8967 88.1752 34.213C88.3844 34.5293 88.646 34.7713 88.9625 34.9418C89.2874 35.1041 89.6398 35.1838 90.017 35.1838C90.3941 35.1838 90.7548 35.0876 91.0493 34.8951C91.3494 34.6943 91.5752 34.4385 91.7211 34.1305L92.3708 34.5128C92.1615 34.9143 91.8449 35.2416 91.421 35.4974C90.997 35.7531 90.5207 35.8796 89.9949 35.8796H89.9922ZM91.7541 32.4309C91.7376 31.9056 91.5641 31.4628 91.2338 31.0998C90.9007 30.7285 90.4189 30.5442 89.7857 30.5442C89.2902 30.5442 88.8579 30.7065 88.4863 31.031C88.1229 31.3555 87.9026 31.8231 87.8256 32.4336H91.7541V32.4309ZM93.9482 27.8793H95.0852L98.8651 34.7576V27.8793H99.6635V35.7531H98.5733L94.7494 28.8281V35.7531H93.9482V27.8793ZM103.884 35.8796C103.358 35.8796 102.879 35.7476 102.447 35.4864C102.023 35.2168 101.681 34.8538 101.428 34.3973C101.18 33.9352 101.056 33.4237 101.056 32.8682C101.056 32.3126 101.18 31.7846 101.428 31.328C101.684 30.8715 102.023 30.5167 102.447 30.2637C102.879 30.0024 103.358 29.8704 103.884 29.8704C104.41 29.8704 104.886 30.0024 105.31 30.2637C105.742 30.5195 106.083 30.8742 106.328 31.328C106.585 31.7846 106.711 32.2961 106.711 32.8682C106.711 33.4402 106.585 33.9325 106.328 34.3973C106.081 34.8538 105.742 35.2141 105.31 35.4864C104.886 35.7476 104.41 35.8796 103.884 35.8796ZM103.884 35.1976C104.286 35.1976 104.641 35.0986 104.949 34.8978C105.258 34.697 105.497 34.4193 105.668 34.0645C105.838 33.7097 105.924 33.3109 105.924 32.8709C105.924 32.4309 105.838 32.0458 105.668 31.6911C105.497 31.3363 105.258 31.0585 104.949 30.8577C104.641 30.6487 104.286 30.5442 103.884 30.5442C103.482 30.5442 103.127 30.6487 102.818 30.8577C102.51 31.0585 102.271 31.3363 102.1 31.6911C101.929 32.0458 101.844 32.4391 101.844 32.8709C101.844 33.3027 101.929 33.707 102.1 34.0645C102.271 34.4193 102.51 34.697 102.818 34.8978C103.127 35.0986 103.482 35.1976 103.884 35.1976ZM107.322 29.9969H108.134L109.434 34.9418L110.744 29.9969H111.752L113.12 34.9638L114.442 29.9969H115.24L113.618 35.7531H112.633L111.254 30.7972L109.91 35.7531H108.936L107.325 29.9969H107.322Z" fill="white"/>
<path d="M11.599 0H8.53125C7.89583 0 7.38021 0.515625 7.38021 1.15104V3.03125L4.21875 0H1.15104C0.515625 0 0 0.515625 0 1.15104V10.901H1.80729V1.80729H3.49479L7.38542 5.53646V10.901H9.19271V7.26563L12.9844 10.901H15.5938L9.19271 4.76563V1.80729H10.8802L20.3177 10.8542L20.3646 10.901H22.974L11.599 0Z" fill="white"/>
<path d="M20.3542 15.5156L10.8698 24.6094H9.18229V21.651L15.2865 15.8021L15.5833 15.5208H12.974L9.18229 19.1563V15.5208H7.375V20.8854L3.48958 24.6094H1.80208V15.5156H0V25.2656C0 25.901 0.515625 26.4167 1.15104 26.4167H4.21875L7.38021 23.3854V25.2656C7.38021 25.901 7.89583 26.4167 8.53125 26.4167H11.599L22.6719 15.8021L22.9688 15.5208H20.3594L20.3542 15.5156Z" fill="white"/>
<path d="M70.0469 6.41667L65.8594 18.1198H65.6615L61.474 6.41667H59.5833L64.526 19.9948H66.9948L71.9375 6.41667H70.0469Z" fill="white"/>
<path d="M40.9271 6.41667L36.8333 18.026H36.6406L32.5469 6.41667H29.5677V19.9948H31.349V8.67708H31.5052L35.5052 19.9948H37.9688L41.9688 8.67708H42.125V19.9948H43.9063V6.41667H40.9271Z" fill="white"/>
<path d="M52.6302 6.22917C49.0313 6.22917 46.125 9.05208 46.125 13.2083C46.125 17.3646 49.0313 20.1875 52.6302 20.1875C56.2292 20.1875 59.1354 17.3646 59.1354 13.2083C59.1354 9.05208 56.2292 6.22917 52.6302 6.22917ZM52.6302 18.5C50.0469 18.5 47.9063 16.3802 47.9063 13.2083C47.9063 10.0365 50.0469 7.91667 52.6302 7.91667C55.2135 7.91667 57.3542 10.0365 57.3542 13.2083C57.3542 16.3802 55.2135 18.5 52.6302 18.5Z" fill="white"/>
<path d="M73.3438 6.41667V19.9948H82.1667V18.3073H75.125V14.0052H81.7865V12.3177H75.125V8.10417H82.1667V6.41667H73.3438Z" fill="white"/>
<path d="M133.385 13.1094L139.401 6.41667H137.146L131.724 12.4844V6.41667H129.938V19.9948H131.724V13.7292L137.531 19.9948H139.786L133.385 13.1094Z" fill="white"/>
<path d="M149.057 13.7813C148.411 13.1615 147.432 12.75 146.089 12.5104L143.995 12.1302C143.26 12 142.74 11.7448 142.406 11.4115C142.073 11.0781 141.911 10.6563 141.911 10.1667C141.911 9.53646 142.156 8.97917 142.635 8.57812C143.12 8.17708 143.844 7.91667 144.823 7.91667C146.964 7.91667 148.12 9.11458 148.12 10.4479V10.5781H149.901V10.4479C149.901 8.07292 147.922 6.22917 144.823 6.22917C143.37 6.22917 142.198 6.64063 141.385 7.34375C140.573 8.04688 140.125 9.03646 140.125 10.1667C140.125 11.1458 140.417 11.9375 140.984 12.5313C141.552 13.125 142.391 13.5156 143.464 13.7188L146.031 14.1927C146.776 14.3333 147.323 14.5885 147.677 14.9323C148.031 15.276 148.208 15.7135 148.208 16.2552C148.208 16.8854 147.984 17.4427 147.484 17.8438C146.979 18.2448 146.182 18.5052 145.01 18.5052C143.839 18.5052 143.042 18.2031 142.479 17.7396C141.911 17.276 141.625 16.6458 141.625 15.974V15.8438H139.844V15.974C139.844 18.25 141.823 20.1927 145.016 20.1927C146.604 20.1927 147.854 19.7813 148.703 19.0833C149.557 18.3802 150 17.3906 150 16.2604C150 15.2344 149.708 14.4115 149.057 13.7865V13.7813Z" fill="white"/>
<path d="M99.724 6.41667L96.8698 18.1198H96.6927L93.6458 6.41667H91.1615L88.1198 18.1198H87.9375L85.0833 6.41667H83.1979L86.5938 19.9948H89.4583L92.3125 8.86458H92.4948L95.349 19.9948H98.2135L101.609 6.41667H99.724Z" fill="white"/>
<path d="M122.786 14.8594H123.703C125.875 14.8594 127.641 13.0833 127.641 10.6406C127.641 8.19792 125.875 6.42188 123.703 6.42188H117.771V20H119.552V14.8646H120.51L125.839 20H128.115L122.786 14.8646V14.8594ZM123.703 13.1719H119.552V8.10417H123.703C124.854 8.10417 125.854 9.07813 125.854 10.6354C125.854 12.1927 124.854 13.1667 123.703 13.1667V13.1719Z" fill="white"/>
<path d="M109.062 6.22917C105.464 6.22917 102.557 9.05208 102.557 13.2083C102.557 17.3646 105.464 20.1875 109.062 20.1875C112.661 20.1875 115.568 17.3646 115.568 13.2083C115.568 9.05208 112.661 6.22917 109.062 6.22917ZM109.062 18.5C106.479 18.5 104.339 16.3802 104.339 13.2083C104.339 10.0365 106.479 7.91667 109.062 7.91667C111.646 7.91667 113.786 10.0365 113.786 13.2083C113.786 16.3802 111.646 18.5 109.062 18.5Z" fill="white"/>
</svg>
